M48
;Layer_Color=9474304
;FILE_FORMAT=4:4
METRIC,LZ
;TYPE=PLATED
T01F00S00C0.3302
T02F00S00C0.5080
T03F00S00C0.7112
T04F00S00C0.9500
T05F00S00C1.0160
;TYPE=NON_PLATED
T06F00S00C0.6500
%
T01
X01214882Y00542798
X01204976Y0056992
X01191768Y0077089
X01187704Y00733044
X01187949Y00725377
X01138174Y00758444
X01137793Y00783717
X01092454Y00779272
X01083564Y00770382
X01068804Y00784888
X01004062Y00784098
X0102108Y00762972
Y0074422
X01031198Y00744348
X00993711Y0071374
X00993409Y00704234
X0094996Y0073914
X0095504Y0075819
X00827033Y00690626
X00814324Y00699008
X0082296Y0065532
X0102616Y005715
X01036066Y00571246
X01148588Y00595376
X01167384
X01189482
X0118237Y00610362
X01175512Y00516128
X0118618Y004445
X0076454Y00810514
X0082169Y0085217
X0083439
X0084328
X00852805
X0086233
X0087122
Y009017
X0086233
X0085344
X0084455
X0083439
X0082169
Y00889
Y0087757
Y0086657
X0094234Y0086741
X0094107Y00842518
X00950214Y00814578
X0101473
X0101092Y0089154
X01008634Y00900684
X01019302
X01026922Y00887984
X0103632Y0092583
X0106172Y0092456
X0105156Y009144
X010795Y00894842
X01093216Y0087249
X011176Y0091694
X01117587Y00943884
X01081098Y0096538
X01064141Y0097028
X010795Y0099206
X00983488Y009398
X0097028
X0097675Y00928758
X0094742Y0092964
X009398
X0090932Y0093218
X00953516Y00900176
X0097536Y0088646
X01137158Y0082169
X01190244Y00872744
X0079375Y0103378
Y0104648
Y0106045
X01192022Y0083439
T02
X006985Y0035814
X007239
X0074422
X0076962
X0079502
X0082042
X0084582
X0087122
X0089662
X0092202
X0094742
X0097282
X0099822
X0102362
X0104902
X0107442
X0109982
X0112522
X0115062
X0117602
X0120142
X0122682
X0125222
X0127762
X0130302
X0132842
X0135382
X0137922
X0140462
X0143002
X01360663Y00437627
X01049528Y0051181
X01007856Y005121
X00964682Y0049708
X00949846Y0053951
X0096139Y00573024
X00922274Y00596392
X0092202Y0067183
X0089662
X0087122
X01138936Y00607568
X0084074Y0097917
X0082804
Y0099187
X0084074
Y0100457
X0085471Y0106934
X0086487
Y010795
X0087503
Y0106934
X0085471Y010795
X0124841Y0108458
Y0109728
X0126746
Y0108458
X0128651
Y0109728
X0130556
Y0108458
X0132461
Y0109728
X0134366
Y0108458
X0136271
Y0109728
X0138176
Y0108458
X0140081
Y0109728
X0141986
Y0108458
X0143891
Y0109728
T03
X0100584Y0095504
X009906Y0100965
X01014375Y01022287
X0103505Y0103378
X01055624Y01018032
X01090676Y01018286
X0110998Y0103251
X0113919Y010541
X0107188Y0109285
X010033Y010541
X00979856Y01054557
X00952459Y01077382
T04
X0126365Y00741172
Y00766572
Y00791972
X0141605
Y00766572
Y00741172
Y00817372
Y00842772
Y00868172
X0126365
Y00842772
Y00817372
T05
X0105918Y0066802
X01041219Y00685981
X01077141Y0065006
X00698754Y00698754
Y00724154
Y00749554
Y00774954
Y00800354
Y00825754
Y00851154
Y00876554
Y00901954
Y00927354
Y00952754
Y00978154
Y01003554
Y01028954
Y01054354
Y01079754
X01183386Y01066292
Y01040892
Y01015492
Y00990092
Y00964692
Y00939292
T06
X0104298Y0105855
X0110078
M30
